name D:\+GitRepos+\flash-running\Simulations\OCP\..\results\predictiveSim\predictiveSim_11-Nov-2020_kinematics.mot
datacolumns 32
datarows 8
range 1.17974439 1.22103545
endheader
time	pelvis_tilt	pelvis_list	pelvis_rotation	pelvis_tx	pelvis_ty	pelvis_tz	hip_flexion_l	hip_adduction_l	hip_rotation_l	hip_flexion_r	hip_adduction_r	hip_rotation_r	knee_angle_l	knee_angle_r	ankle_angle_l	ankle_angle_r	subtalar_angle_l	subtalar_angle_r	lumbar_extension	lumbar_bending	lumbar_rotation	arm_flex_l	arm_add_l	arm_rot_l	arm_flex_r	arm_add_r	arm_rot_r	elbow_flex_l	elbow_flex_r	pro_sup_l	pro_sup_r	
          1.17974439	        -11.60564293	         -0.27286003	         -1.66083789	          4.12910537	          0.98737482	          0.00793027	         38.36144101	          7.46362538	          9.42610153	         24.93789594	          6.36047939	         -0.21039528	        -61.56000366	        -15.93342985	         -6.61369105	         -9.65449006	          3.85674677	          8.47235070	         -2.04459277	          1.61038229	         -0.44925308	         -9.78578462	        -10.85776816	         -2.24292258	         -0.64284168	          3.09534063	        -11.92908198	         66.28422171	        149.03977631	         86.51662706	         86.51662706	
          1.18564311	        -11.32248037	         -0.24302136	         -1.71293845	          4.14902814	          0.98381205	          0.00809285	         38.61219786	          7.22361408	          9.51845751	         24.76875908	          6.48678578	         -0.20075554	        -60.83598386	        -16.41943065	         -6.26306221	         -9.58222328	          3.81514782	          7.89328083	         -2.29583692	          1.57288121	         -0.68033616	         -8.86438230	        -10.81402761	         -2.60634901	          1.40739951	          4.19942530	        -11.22771353	         62.03920351	        149.89062068	         86.51662706	         86.51662706	
          1.19154184	        -11.03380704	         -0.22383735	         -1.75807205	          4.16903256	          0.97992932	          0.00825424	         38.92785699	          6.93351491	          9.57152245	         24.51781762	          6.61521908	         -0.13742972	        -59.99712892	        -17.36749692	         -5.90340439	         -8.91978364	          3.76556255	          7.17737392	         -2.53179129	          1.54571568	         -0.89306637	         -7.83990198	        -10.75608839	         -2.95755145	          3.47164237	          5.32781517	        -10.53981125	         57.58794943	        150.66488584	         86.51662706	         86.51662706	
          1.19744056	        -10.72910898	         -0.21261473	         -1.80694136	          4.18908382	          0.97577025	          0.00840458	         39.29016605	          6.61725137	          9.64615355	         24.25709754	          6.74723537	         -0.07207839	        -59.06332762	        -19.26708682	         -5.55368694	         -7.79436516	          3.70916607	          6.53655478	         -2.77263813	          1.52960103	         -1.08026943	         -6.69772624	        -10.68008545	         -3.30115274	          5.56136036	          6.47315119	         -9.86426907	         52.90533950	        151.35906298	         86.51662706	         86.51662706	
          1.20333928	        -10.41835188	         -0.21025053	         -1.85018213	          4.20918821	          0.97143457	          0.00856600	         39.68748872	          6.25511229	          9.69457542	         23.90578910	          6.91681523	          0.04832414	        -58.01547672	        -21.68749005	         -5.21788822	         -6.15502862	          3.65285894	          6.02506333	         -3.00436996	          1.52004220	         -1.23913169	         -5.41077096	        -10.58965550	         -3.62303631	          7.66101846	          7.63051427	         -9.21816556	         47.92378115	        151.95955871	         86.51662706	         86.51662706	
          1.20923800	        -10.11922769	         -0.20697140	         -1.87384239	          4.22937609	          0.96702001	          0.00874860	         40.10972002	          5.82721779	          9.62856776	         23.33899401	          7.12819670	          0.28286930	        -56.81889584	        -23.85804323	         -4.88059979	         -4.10267897	          3.60526786	          5.47111815	         -3.19855634	          1.50057939	         -1.36791933	         -3.95147809	        -10.48890104	         -3.90511542	          9.74475096	          8.79235932	         -8.62456204	         42.56484520	        152.45441495	         86.51662706	         86.51662706	
          1.21513672	         -9.83152012	         -0.19464383	         -1.88203653	          4.24962341	          0.96257376	          0.00892971	         40.54209165	          5.34877015	          9.44754473	         22.58980713	          7.35563827	          0.59801187	        -55.47301464	        -25.74304464	         -4.54198477	         -2.01201640	          3.57322379	          4.85986698	         -3.35915970	          1.46582363	         -1.46344316	         -2.30160830	        -10.37334364	         -4.15038067	         11.81491519	          9.94522352	         -8.08875500	         36.78701037	        152.84230077	         86.51662706	         86.51662706	
          1.22103545	         -9.55154468	         -0.17385279	         -1.88157154	          4.26989178	          0.95813282	          0.00909440	         40.97234237	          4.83547861	          9.17939161	         21.71373920	          7.58262485	          0.94700287	        -53.99111385	        -27.40720344	         -4.21071820	         -0.00143052	          3.56317181	          4.23327891	         -3.49780345	          1.41889196	         -1.52116127	         -0.44677849	        -10.23939755	         -4.36673030	         13.87835233	         11.07514312	         -7.61520990	         30.56573116	        153.12524645	         86.51662706	         86.51662706	
